<svg width="20" height="20" viewBox="0 0 20 20" fill="none" xmlns="http://www.w3.org/2000/svg">
<path d="M3.42147 15.0896L2.62766 14.4814H2.62766L3.42147 15.0896ZM4.39062 12.3649L3.39062 12.3525V12.3649H4.39062ZM4.41096 10.7175L5.41096 10.7298V10.7175H4.41096ZM16.584 15.1028L17.3899 14.5107L17.3899 14.5107L16.584 15.1028ZM15.6513 12.3649L14.6513 12.3519V12.3649H15.6513ZM15.6717 10.7991L16.6717 10.8121V10.7991H15.6717ZM4.21529 15.6977C4.79781 14.9374 5.39062 13.7849 5.39062 12.3649H3.39062C3.39062 13.2187 3.03145 13.9544 2.62766 14.4814L4.21529 15.6977ZM5.39055 12.3772L5.41089 10.7298L3.41104 10.7051L3.3907 12.3525L5.39055 12.3772ZM17.3899 14.5107C17.0037 13.985 16.6513 13.2387 16.6513 12.3649H14.6513C14.6513 13.7804 15.2181 14.9326 15.7781 15.6949L17.3899 14.5107ZM16.6513 12.3779L16.6716 10.8121L14.6718 10.7861L14.6514 12.3519L16.6513 12.3779ZM16.6717 10.7991C16.6717 7.13302 13.6767 4.17552 10.0002 4.17552V6.17552C12.5882 6.17552 14.6717 8.25356 14.6717 10.7991H16.6717ZM16.2446 16.8663C16.936 16.8663 17.3677 16.3845 17.54 15.9833C17.7108 15.5854 17.7508 15.002 17.3899 14.5107L15.7781 15.6949C15.6216 15.4817 15.6654 15.2801 15.7022 15.1943C15.7403 15.1054 15.9002 14.8663 16.2446 14.8663V16.8663ZM5.41096 10.7175C5.41096 8.21701 7.4576 6.17552 10.0002 6.17552V4.17552C6.36907 4.17552 3.41096 7.09647 3.41096 10.7175H5.41096ZM3.75652 14.8663C4.1084 14.8663 4.26576 15.1136 4.30072 15.1976C4.33458 15.2789 4.37961 15.4833 4.21529 15.6977L2.62766 14.4814C2.25081 14.9733 2.2877 15.566 2.45437 15.9663C2.62215 16.3693 3.0533 16.8663 3.75652 16.8663V14.8663ZM16.2446 14.8663H3.75652V16.8663H16.2446V14.8663ZM11.6668 15.8663C11.6668 16.6047 10.9953 17.3334 10.0002 17.3334V19.3334C11.9505 19.3334 13.6668 17.8529 13.6668 15.8663H11.6668ZM10.0002 17.3334C9.00503 17.3334 8.3335 16.6047 8.3335 15.8663H6.3335C6.3335 17.8529 8.04978 19.3334 10.0002 19.3334V17.3334ZM10.7779 3.42113C10.7779 3.82532 10.4422 4.17552 10.0002 4.17552V6.17552C11.5218 6.17552 12.7779 4.95479 12.7779 3.42113H10.7779ZM10.0002 4.17552C9.55808 4.17552 9.22238 3.82532 9.22238 3.42113H7.22238C7.22238 4.95479 8.47857 6.17552 10.0002 6.17552V4.17552ZM9.22238 3.42113C9.22238 3.01694 9.55808 2.66675 10.0002 2.66675V0.666748C8.47857 0.666748 7.22238 1.88748 7.22238 3.42113H9.22238ZM10.0002 2.66675C10.4422 2.66675 10.7779 3.01694 10.7779 3.42113H12.7779C12.7779 1.88748 11.5218 0.666748 10.0002 0.666748V2.66675Z" fill="#4B5563"/>
</svg>
