<svg  viewBox="0 0 18 18" fill="currentColor" xmlns="http://www.w3.org/2000/svg">
<g id="dashboard-monitor" clip-path="url(#clip0_888_29761)">
<path id="Vector" d="M10.5029 7.5C10.5029 8.26425 10.2719 8.973 9.87893 9.5655L7.72268 7.40925C7.58168 7.26825 7.50293 7.07775 7.50293 6.879V3.82575C9.21443 4.173 10.5029 5.68575 10.5029 7.5ZM6.00293 7.1895V3.82575C4.09043 4.21425 2.70593 6.05775 3.05768 8.151C3.30143 9.6015 4.42268 10.8082 5.85443 11.145C6.95693 11.4037 7.99943 11.1698 8.81843 10.6267L6.44168 8.25C6.16043 7.96875 6.00293 7.587 6.00293 7.1895ZM14.2529 3.75H12.7529C12.3382 3.75 12.0029 4.086 12.0029 4.5C12.0029 4.914 12.3382 5.25 12.7529 5.25H14.2529C14.6677 5.25 15.0029 4.914 15.0029 4.5C15.0029 4.086 14.6677 3.75 14.2529 3.75ZM14.2529 6.75H12.7529C12.3382 6.75 12.0029 7.086 12.0029 7.5C12.0029 7.914 12.3382 8.25 12.7529 8.25H14.2529C14.6677 8.25 15.0029 7.914 15.0029 7.5C15.0029 7.086 14.6677 6.75 14.2529 6.75ZM14.2529 9.75H12.7529C12.3382 9.75 12.0029 10.086 12.0029 10.5C12.0029 10.914 12.3382 11.25 12.7529 11.25H14.2529C14.6677 11.25 15.0029 10.914 15.0029 10.5C15.0029 10.086 14.6677 9.75 14.2529 9.75ZM18.0029 4.5V10.5C18.0029 12.5677 16.3207 14.25 14.2529 14.25H9.75293V15.75H12.7529C13.1677 15.75 13.5029 16.086 13.5029 16.5C13.5029 16.914 13.1677 17.25 12.7529 17.25H5.25293C4.83818 17.25 4.50293 16.914 4.50293 16.5C4.50293 16.086 4.83818 15.75 5.25293 15.75H8.25293V14.25H3.75293C1.68518 14.25 0.00292969 12.5677 0.00292969 10.5V4.5C0.00292969 2.43225 1.68518 0.75 3.75293 0.75H14.2529C16.3207 0.75 18.0029 2.43225 18.0029 4.5ZM16.5029 4.5C16.5029 3.2595 15.4934 2.25 14.2529 2.25H3.75293C2.51243 2.25 1.50293 3.2595 1.50293 4.5V10.5C1.50293 11.7405 2.51243 12.75 3.75293 12.75H14.2529C15.4934 12.75 16.5029 11.7405 16.5029 10.5V4.5Z" fill="currentColor"/>
</g>
<defs>
<clipPath id="clip0_888_29761">
<rect width="18" height="18" fill="currentColor" transform="translate(0.00292969)"/>
</clipPath>
</defs>
</svg>
