<svg width="19" height="18" viewBox="0 0 19 18" fill="none" xmlns="http://www.w3.org/2000/svg">
<g clip-path="url(#clip0_902_44602)">
<path d="M9.27349 11.9997C9.62273 12.0004 9.9673 11.9198 10.28 11.7642L11.78 11.0142C12.5445 10.6346 13.0268 9.85334 13.0235 8.99975V6.7745C13.0261 5.92164 12.5439 5.14139 11.78 4.76226L10.28 4.01227C9.64621 3.69727 8.9015 3.69727 8.26774 4.01227L6.76773 4.76226C6.0035 5.14117 5.52098 5.9215 5.52348 6.7745V8.99975C5.52073 9.85282 6.0029 10.6334 6.76699 11.0128L8.267 11.7627C8.57954 11.9188 8.92414 11.9999 9.27349 11.9997ZM7.02349 8.99975V6.7745C7.02468 6.698 7.03759 6.6221 7.06174 6.5495L8.69675 7.36699C9.05984 7.54846 9.48717 7.54846 9.85026 7.36699L11.4853 6.5495C11.5094 6.6221 11.5223 6.698 11.5235 6.7745V8.99975C11.5247 9.2843 11.3638 9.54474 11.1088 9.67099L9.60877 10.421C9.39727 10.5256 9.14903 10.5256 8.93753 10.421L7.43752 9.67099C7.18275 9.54453 7.02215 9.28416 7.02349 8.99975ZM14.5235 16.4997H12.4917L15.107 14.0832C18.3289 10.8614 18.3289 5.63786 15.1071 2.41597C11.8854 -0.805927 6.6618 -0.805962 3.43991 2.41579C0.218012 5.63755 0.217942 10.8612 3.43973 14.0831C3.4468 14.0901 6.05525 16.4997 6.05525 16.4997H4.0235C3.60929 16.4997 3.27351 16.8355 3.27351 17.2497C3.27351 17.6639 3.60929 17.9997 4.0235 17.9997H14.5235C14.9377 17.9997 15.2735 17.6639 15.2735 17.2497C15.2735 16.8355 14.9377 16.4997 14.5235 16.4997ZM4.5005 3.47674C7.13075 0.834675 11.4048 0.825112 14.0469 3.45536C16.6889 6.08561 16.6985 10.3597 14.0682 13.0017L11.0795 15.7625C10.0594 16.724 8.46507 16.7184 7.45176 15.7497L4.5005 13.0227C1.86853 10.385 1.86856 6.11451 4.5005 3.47674Z" fill="#374151"/>
</g>
<defs>
<clipPath id="clip0_902_44602">
<rect width="18" height="18" fill="white" transform="translate(0.273438)"/>
</clipPath>
</defs>
</svg>
