<svg width="25" height="24" viewBox="0 0 25 24" fill="none" xmlns="http://www.w3.org/2000/svg">
<g clip-path="url(#clip0_280_28452)">
<path d="M14.5 10C14.5 11.019 14.192 11.964 13.668 12.754L10.793 9.879C10.605 9.691 10.5 9.437 10.5 9.172V5.101C12.782 5.564 14.5 7.581 14.5 10ZM8.5 9.586V5.101C5.95 5.619 4.104 8.077 4.573 10.868C4.898 12.802 6.393 14.411 8.302 14.86C9.772 15.205 11.162 14.893 12.254 14.169L9.085 11C8.71 10.625 8.5 10.116 8.5 9.586ZM19.5 5H17.5C16.947 5 16.5 5.448 16.5 6C16.5 6.552 16.947 7 17.5 7H19.5C20.053 7 20.5 6.552 20.5 6C20.5 5.448 20.053 5 19.5 5ZM19.5 9H17.5C16.947 9 16.5 9.448 16.5 10C16.5 10.552 16.947 11 17.5 11H19.5C20.053 11 20.5 10.552 20.5 10C20.5 9.448 20.053 9 19.5 9ZM19.5 13H17.5C16.947 13 16.5 13.448 16.5 14C16.5 14.552 16.947 15 17.5 15H19.5C20.053 15 20.5 14.552 20.5 14C20.5 13.448 20.053 13 19.5 13ZM24.5 6V14C24.5 16.757 22.257 19 19.5 19H13.5V21H17.5C18.053 21 18.5 21.448 18.5 22C18.5 22.552 18.053 23 17.5 23H7.5C6.947 23 6.5 22.552 6.5 22C6.5 21.448 6.947 21 7.5 21H11.5V19H5.5C2.743 19 0.5 16.757 0.5 14V6C0.5 3.243 2.743 1 5.5 1H19.5C22.257 1 24.5 3.243 24.5 6ZM22.5 6C22.5 4.346 21.154 3 19.5 3H5.5C3.846 3 2.5 4.346 2.5 6V14C2.5 15.654 3.846 17 5.5 17H19.5C21.154 17 22.5 15.654 22.5 14V6Z" fill="white"/>
</g>
<defs>
<clipPath id="clip0_280_28452">
<rect width="24" height="24" fill="white" transform="translate(0.5)"/>
</clipPath>
</defs>
</svg>
