<svg width="24" height="24" viewBox="0 0 24 24" fill="currentColor" xmlns="http://www.w3.org/2000/svg">
<g clip-path="url(#clip0_1644_48196)">
<path d="M22.5 12C21.672 12 21 12.672 21 13.5V14H15.538L11 9.84V3H11.5C12.329 3 13 2.328 13 1.5C13 0.672 12.329 0 11.5 0H5.5C2.467 0 0 2.468 0 5.5V18.5C0 21.532 2.467 24 5.5 24H18.5C21.532 24 24 21.532 24 18.5V13.5C24 12.672 23.328 12 22.5 12ZM5.5 3H8V9.573L3 12.073V5.5C3 4.121 4.122 3 5.5 3ZM3 18.5V15.427L9.248 12.303L13.539 16.237L10.364 21H5.5C4.122 21 3 19.879 3 18.5ZM18.5 21H13.969L16.636 17H21V18.5C21 19.879 19.879 21 18.5 21ZM18.113 11.126C18.606 11.608 19.394 11.608 19.887 11.126L22.535 8.536C24.488 6.583 24.488 3.418 22.535 1.465C21.559 0.488 20.28 0 19 0C17.72 0 16.441 0.488 15.464 1.464C13.511 3.417 13.511 6.582 15.464 8.535L18.112 11.125L18.113 11.126ZM19 3.554C19.828 3.554 20.5 4.226 20.5 5.054C20.5 5.882 19.828 6.554 19 6.554C18.172 6.554 17.5 5.882 17.5 5.054C17.5 4.226 18.172 3.554 19 3.554Z" fill="currentColor"/>
</g>
<defs>
<clipPath id="clip0_1644_48196">
<rect width="24" height="24" fill="currentColor"/>
</clipPath>
</defs>
</svg>
