<svg width="21" height="20" viewBox="0 0 21 20" fill="currentColor" xmlns="http://www.w3.org/2000/svg">
<g clip-path="url(#clip0_280_28460)">
<path d="M10.5002 13.3333C10.8883 13.3341 11.2711 13.2445 11.6185 13.0717L13.2852 12.2383C14.1347 11.8165 14.6706 10.9485 14.6669 10V7.52752C14.6698 6.5799 14.134 5.71295 13.2852 5.2917L11.6185 4.45838C10.9144 4.10838 10.0869 4.10838 9.38272 4.45838L7.71604 5.2917C6.8669 5.71271 6.33077 6.57975 6.33354 7.52752V10C6.33049 10.9479 6.86624 11.8151 7.71522 12.2367L9.3819 13.07C9.72917 13.2434 10.1121 13.3336 10.5002 13.3333ZM8.00022 10V7.52752C8.00155 7.44252 8.01588 7.35818 8.04272 7.27752L9.8594 8.18584C10.2628 8.38748 10.7376 8.38748 11.1411 8.18584L12.9578 7.27752C12.9846 7.35818 12.9989 7.44252 13.0003 7.52752V10C13.0016 10.3162 12.8228 10.6056 12.5394 10.7458L10.8728 11.5792C10.6378 11.6954 10.3619 11.6954 10.1269 11.5792L8.46026 10.7458C8.17717 10.6053 7.99874 10.316 8.00022 10ZM16.3335 18.3333H14.076L16.9819 15.6483C20.5617 12.0686 20.5618 6.26459 16.9821 2.68471C13.4023 -0.895176 7.59834 -0.895215 4.01846 2.68451C0.438579 6.26424 0.438501 12.0683 4.01827 15.6481C4.02612 15.656 6.9244 18.3333 6.9244 18.3333H4.6669C4.20666 18.3333 3.83358 18.7064 3.83358 19.1667C3.83358 19.6269 4.20666 20 4.6669 20H16.3336C16.7938 20 17.1669 19.6269 17.1669 19.1667C17.1669 18.7065 16.7938 18.3333 16.3335 18.3333ZM5.1969 3.86334C8.1194 0.927715 12.8683 0.91709 15.804 3.83959C18.7396 6.76209 18.7502 11.511 15.8277 14.4467L12.5069 17.5142C11.3735 18.5825 9.60198 18.5763 8.47608 17.5L5.1969 14.47C2.27249 11.5392 2.27252 6.7942 5.1969 3.86334Z" fill="currentColor"/>
</g>
<defs>
<clipPath id="clip0_280_28460">
<rect width="20" height="20" fill="currentColor" transform="translate(0.5)"/>
</clipPath>
</defs>
</svg>
