<svg width="24" height="24" viewBox="0 0 24 24" fill="none" xmlns="http://www.w3.org/2000/svg">
<g id="Close">
<path id="Close_2" fill-rule="evenodd" clip-rule="evenodd" d="M17.9706 6.65686C18.3611 7.04738 18.3611 7.68055 17.9706 8.07107L13.7279 12.3137L17.9706 16.5564C18.3332 16.919 18.3591 17.4908 18.0483 17.8833L17.9706 17.9706C17.5801 18.3611 16.9469 18.3611 16.5564 17.9706L12.3137 13.7279L8.07108 17.9706C7.70845 18.3332 7.1366 18.3591 6.74409 18.0483L6.65687 17.9706C6.26634 17.58 6.26634 16.9469 6.65687 16.5564L10.8995 12.3137L6.65687 8.07107C6.29424 7.70844 6.26834 7.1366 6.57916 6.74408L6.65687 6.65686C7.04739 6.26633 7.68056 6.26633 8.07108 6.65686L12.3137 10.8995L16.5564 6.65686C16.919 6.29423 17.4908 6.26833 17.8834 6.57915L17.9706 6.65686Z" fill="#111827"/>
</g>
</svg>
